<?xml version="1.0" encoding="UTF-8"?>
<svg version="1.1" viewBox="0 0 256 256" xml:space="preserve" xmlns="http://www.w3.org/2000/svg"><rect transform="scale(1,-1)" x="12" y="-244" width="232" height="232" rx="13" fill="#ed8936"/><path d="m113.97 201.7c-0.78866-0.19512-1.3494-0.58038-1.5526-1.0666-0.1472-0.3523-0.19918-1.1374-0.19918-3.0083 0-2.6989 0.0972-3.2093 0.74245-3.9004 0.66742-0.71481 0.74245-0.72435 5.6972-0.72435h4.6317v-24.245h-0.62348c-1.1688 0-3.9121-0.4306-4.9386-0.77518-1.8694-0.62755-6.1309-2.8863-8.0667-4.2757-1.0485-0.75252-3.0709-2.5572-5.4056-4.8235-2.0128-1.9538-2.2857-2.3401-4.2618-6.032-1.2357-2.3087-2.3888-4.8226-2.7532-6.0024-0.1556-0.50379-0.41571-1.9765-0.57801-3.2728-0.58489-4.6714-0.67054-6.9935-0.63996-17.352 0.025-8.4801 0.0611-10 0.26622-11.212 0.62228-3.6757 0.77423-4.1949 2.2895-7.8228 0.81061-1.9409 1.5628-3.8209 1.6714-4.1778 0.22408-0.73603 0.54509-1.0908 0.77706-0.85886 0.32748 0.32748 0.37855 2.9123 0.38834 19.656 9e-3 15.153 0.039 17.614 0.2291 18.709 0.12038 0.69372 0.24927 1.482 0.28642 1.7518 0.24754 1.7975 1.2549 5.0862 2.37 7.7372 0.54337 1.2918 1.4127 2.4316 4.2529 5.5766 0.73092 0.80934 1.6181 1.8394 1.9714 2.2891 0.60792 0.7736 0.78194 0.88706 3.2352 2.1092 2.8144 1.4021 5.5284 2.6356 6.3065 2.8663 0.26977 0.08 0.99502 0.24035 1.6117 0.35636 3.8999 0.7337 6.7824 0.8945 8.6189 0.48078 0.5781-0.13024 1.5825-0.27329 2.2321-0.31792 1.1766-0.0808 2.0012-0.25325 3.8642-0.80817 1.2734-0.37926 4.3376-1.5347 5.1284-1.9338 0.94035-0.47455 3.549-2.5877 6.5424-5.2997 1.4966-1.3559 1.9638-2.073 3.4387-5.2779 2.0892-4.5398 2.3246-5.4019 2.8514-10.441 0.2118-2.0259 0.24797-4.457 0.29185-19.62 0.0439-15.177 0.0763-17.348 0.26266-17.633 0.28432-0.43431 0.52489-0.22758 0.8389 0.72089 0.132 0.39872 0.88162 2.2701 1.6658 4.1585 1.4732 3.5476 1.731 4.4398 2.2684 7.8481 0.19386 1.2296 0.24121 3.0035 0.28797 10.791 0.0516 8.582 0.0335 9.5464-0.2287 12.193-0.15657 1.5804-0.3226 3.6302-0.36894 4.5552-0.16706 3.3342-0.71079 5.0818-2.8997 9.3196-1.7972 3.4794-2.3983 4.3209-5.2683 7.3756-3.8851 4.1351-4.5013 4.5991-8.9242 6.7197-4.0424 1.9381-4.5136 2.078-8.9348 2.6527l-0.66568 0.0865v24.228l2.5576-2e-3c1.4095-1e-3 2.4754-0.0543 2.3743-0.1184-0.26643-0.16898-0.0625-0.8881 0.23531-0.82974 0.13615 0.0267 0.22152 0.17092 0.21152 0.35736-9e-3 0.17196 0.0381 0.31264 0.1051 0.31264s0.12189-0.12204 0.12189-0.27119c0-0.25423 0.0811-0.26631 1.2963-0.19322 1.3509 0.0812 1.9541 0.32448 1.5066 0.60748-0.15317 0.0968-0.0581 0.13364 0.35036 0.13559 0.68232 3e-3 1.3059 0.36387 1.8407 1.0645l0.40163 0.52617 0.0453 2.7591c0.0534 3.2546-0.0238 3.5766-0.98069 4.0873l-0.60621 0.32358-13.874 0.0223c-7.6309 0.0123-14.064-0.0245-14.295-0.0817zm23.847-9.4355c-0.0389-0.0964-0.0707-0.0175-0.0707 0.17518 0 0.1927 0.0318 0.27153 0.0707 0.17518 0.0389-0.0964 0.0389-0.25401 0-0.35036zm-12.402-34.185c-0.5654-0.0709-1.74-0.30868-2.6104-0.52849-8.6846-2.1933-15.232-9.0469-17.037-17.834-0.25173-1.2256-0.54961-4.4264-0.55498-5.9632l-2e-3 -0.59562 15.766-2e-3 0.70073-0.327c1.3477-0.62894 2.2813-2.1091 2.1371-3.3883-0.1382-1.2262-1.3828-2.6655-2.5962-3.0025-0.33045-0.0918-3.3643-0.14526-8.2681-0.14575l-7.7461-1e-3 0.0762-5.2554 16.123-0.1402 0.69737-0.45039c2.3665-1.5283 2.2686-4.4466-0.19777-5.8965l-0.64646-0.38004-16.006-0.1402 0.0148-2.5927 0.0148-2.5927 16.149-0.1402 0.69851-0.47675c0.38416-0.26222 0.91303-0.79139 1.1752-1.176 0.44067-0.64629 0.47644-0.77988 0.47261-1.7656-6e-3 -1.4788-0.50469-2.3051-1.8159-3.0074-0.55414-0.29681-0.68141-0.30183-8.6588-0.34166l-8.0964-0.0404 0.0381-2.6223 0.0381-2.6223 16.137-0.1402 0.62026-0.40391c0.74591-0.48573 1.1453-0.9389 1.5261-1.7318 0.7208-1.5005-0.0784-3.3732-1.8537-4.3434-0.41634-0.22752-1.113-0.25111-8.486-0.28731l-8.0324-0.0394 0.0884-5.2466 8.0583-0.0701c8.945-0.0778 8.3636-0.013 9.4157-1.048 0.67983-0.66872 1.0951-1.5532 1.0951-2.3322 0-1.4282-1.3399-3.0199-2.8069-3.3345-0.46196-0.0991-3.3542-0.15238-8.2679-0.15238h-7.5574l0.0598-0.3854c0.0329-0.21197 0.0944-0.95298 0.13679-1.6467 0.27051-4.4311 2.446-9.5291 5.6117-13.15 3.7498-4.2891 8.572-6.9824 14.085-7.8671 0.73225-0.1175 1.5679-0.21388 1.8569-0.21419l0.52554 1.2e-4v103.99l-0.52554-0.0181c-0.28905-0.01-0.98813-0.0761-1.5535-0.14694zm3.0601-51.848v-52.013l0.80583 0.0945c4.3344 0.5083 9.4388 2.6589 12.648 5.3288 5.3888 4.4832 8.3459 10.243 8.727 16.998l0.0491 0.87049-15.853 0.0808-0.67868 0.34664c-1.5611 0.79741-2.3396 2.404-1.9116 3.945 0.16794 0.60458 1.061 1.6588 1.7885 2.1111l0.52149 0.32425 16.117 0.1402 0.0654 5.2554h-7.7507c-8.6034 0-8.5098-9e-3 -9.5976 0.92215-1.5869 1.3583-1.6669 3.4121-0.19077 4.8932 1.0337 1.0372 0.46724 0.97392 9.4154 1.0517l8.0583 0.0701 0.0381 2.6223 0.0381 2.6223-16.193 0.0808-0.59854 0.31967c-1.6473 0.87977-2.2838 2.6775-1.5243 4.3051 0.33945 0.72736 1.2298 1.6405 1.8849 1.9332 0.27431 0.12257 2.57 0.18816 8.3663 0.239l7.9882 0.0701 0.0213 2.6277 0.0213 2.6277-7.7292 1e-3c-4.8921 0-7.9208 0.054-8.2512 0.14575-0.73558 0.20429-1.6427 0.93853-2.1267 1.7214-0.98112 1.5869-0.45679 3.3509 1.3519 4.5482l0.57532 0.38083 16.052 0.1402 0.0754 2.6277 0.0754 2.6277h-7.7508c-8.5996 0-8.5104-9e-3 -9.5939 0.91887-0.70416 0.60274-1.2911 1.7461-1.2869 2.5072 7e-3 1.2044 0.92243 2.5161 2.1692 3.1065l0.70072 0.33184 15.798 2e-3 -0.0989 1.9971c-0.18743 3.786-0.86584 6.6838-2.2462 9.5947-3.024 6.377-8.574 11.013-15.325 12.801-1.0802 0.28608-3.5464 0.68604-4.2595 0.69079l-0.3854 2e-3v-52.013z" fill="#fff" stroke-width=".14014"/><g fill="#fff" stroke-width="10.828" aria-label="v"><path d="m19.298 20.448h36.281v1.9688q-4.125 0.84375-5.625 1.875-3 1.875-3 6 0 2.5312 0.9375 5.9062t3.4688 9.8438l15.188 38.531 15.281-40.125q3.375-8.9062 3.375-13.219 0-4.6875-2.9062-6.8438-1.5-1.125-5.5312-1.9688v-1.9688h25.875v1.9688q-5.25 1.3125-8.4375 4.6875-4.0312 4.2188-9.2812 17.719l-21.656 55.312h-5.0625l-23.531-58.125q-5.4375-13.406-7.7812-16.219-1.3125-1.5-2.9062-2.1562-1.5938-0.75-4.6875-1.2188z"/></g><g transform="scale(.96499 1.0363)" fill="#fff" stroke-width="9.6277" aria-label="o"><path d="m166.5 191.09q0-13.504 10.003-24.09 12.17-12.837 29.091-12.837t29.008 12.837q10.003 10.669 10.003 24.173 0 13.337-9.5025 23.756-11.67 12.837-29.508 12.837-17.838 0-29.591-12.837-4.5845-5.0013-7.0852-11.17-2.4173-6.1683-2.4173-12.67zm15.171-0.91691q0 14.504 6.5017 24.59 7.3352 11.253 17.921 11.253 4.5012 0 8.7523-2.5006t7.3352-7.0018q3.2508-4.6679 5.2514-11.67 2.0005-7.0852 2.0005-13.67 0-6.8351-2.1672-13.754-2.0839-7.0018-5.6681-12.003-6.8351-9.4191-16.754-9.4191-9.4191 0-16.254 9.9192-6.9185 9.9192-6.9185 24.256z"/></g></svg>
